<svg xmlns="http://www.w3.org/2000/svg" viewBox="0 0 128 128">
  <defs>
    <linearGradient id="bg" x1="12" x2="116" y1="10" y2="118" gradientUnits="userSpaceOnUse">
      <stop offset="0" stop-color="#0b2239" />
      <stop offset="0.56" stop-color="#0f766e" />
      <stop offset="1" stop-color="#12344d" />
    </linearGradient>
  </defs>
  <rect width="128" height="128" rx="28" fill="url(#bg)" />
  <path
    d="M27 72c9-18 25-28 46-28 10 0 18 2 28 7-8 2-15 6-22 13-10 9-20 14-31 14-7 0-14-2-21-6Zm1 17c7 4 14 6 21 6 15 0 26-6 37-16 7-7 13-11 20-13-4 8-10 15-19 21-12 9-25 14-39 14-8 0-14-2-20-5Z"
    fill="#f8fbfd"
  />
</svg>
